HIERARCHY
ROOT Hips
{
	OFFSET -14.64140 90.27770 -84.91600
	CHANNELS 6 Xposition Yposition Zposition Zrotation Xrotation Yrotation
	JOINT Spine
	{
		OFFSET 0.00000 13.20850 -1.60436
		CHANNELS 3 Zrotation Xrotation Yrotation
		JOINT Spine1
		{
			OFFSET 0.00000 8.61716 0.00000
			CHANNELS 3 Zrotation Xrotation Yrotation
			JOINT Spine2
			{
				OFFSET 0.00000 8.61717 0.00000
				CHANNELS 3 Zrotation Xrotation Yrotation
				JOINT Spine3
				{
					OFFSET 0.00000 8.61717 0.00000
					CHANNELS 3 Zrotation Xrotation Yrotation
					JOINT Neck
					{
						OFFSET 0.00000 11.07920 1.10792
						CHANNELS 3 Zrotation Xrotation Yrotation
						JOINT Neck1
						{
							OFFSET 0.00000 7.08032 0.00000
							CHANNELS 3 Zrotation Xrotation Yrotation
							JOINT Head
							{
								OFFSET 0.00000 7.08031 0.00000
								CHANNELS 3 Zrotation Xrotation Yrotation
								End site
								{
									OFFSET 0.00000 0.00000 0.00000
								}
							}
						}
					}
					JOINT RightShoulder
					{
						OFFSET -0.01000 7.91373 5.19711
						CHANNELS 3 Zrotation Xrotation Yrotation
						JOINT RightArm
						{
							OFFSET -18.41580 0.00000 0.00000
							CHANNELS 3 Zrotation Xrotation Yrotation
							JOINT RightForeArm
							{
								OFFSET -29.11090 0.00000 0.00000
								CHANNELS 3 Zrotation Xrotation Yrotation
								JOINT RightHand
								{
									OFFSET -24.65040 0.00000 0.00000
									CHANNELS 3 Zrotation Xrotation Yrotation
									JOINT RightHandThumb1
									{
										OFFSET -5.35114 -0.85590 3.97906
										CHANNELS 3 Zrotation Xrotation Yrotation
										JOINT RightHandThumb2
										{
											OFFSET -4.52789 0.00000 0.00000
											CHANNELS 3 Zrotation Xrotation Yrotation
											JOINT RightHandThumb3
											{
												OFFSET -2.46976 0.00000 0.00000
												CHANNELS 3 Zrotation Xrotation Yrotation
												End site
												{
													OFFSET 0.00000 0.00000 0.00000
												}
											}
										}
									}
									JOINT RightHandIndex1
									{
										OFFSET -14.26970 0.00000 2.88139
										CHANNELS 3 Zrotation Xrotation Yrotation
										JOINT RightHandIndex2
										{
											OFFSET -5.48836 0.00000 0.00000
											CHANNELS 3 Zrotation Xrotation Yrotation
											JOINT RightHandIndex3
											{
												OFFSET -3.01859 0.00000 0.00000
												CHANNELS 3 Zrotation Xrotation Yrotation
												End site
												{
													OFFSET 0.00000 0.00000 0.00000
												}
											}
										}
									}
									JOINT RightHandMiddle1
									{
										OFFSET -14.26970 0.00000 -0.09147
										CHANNELS 3 Zrotation Xrotation Yrotation
										JOINT RightHandMiddle2
										{
											OFFSET -6.17441 0.00000 0.00000
											CHANNELS 3 Zrotation Xrotation Yrotation
											JOINT RightHandMiddle3
											{
												OFFSET -3.56743 0.00000 0.00000
												CHANNELS 3 Zrotation Xrotation Yrotation
												End site
												{
													OFFSET 0.00000 0.00000 0.00000
												}
											}
										}
									}
									JOINT RightHandRing1
									{
										OFFSET -12.69180 0.00000 -3.06433
										CHANNELS 3 Zrotation Xrotation Yrotation
										JOINT RightHandRing2
										{
											OFFSET -5.62556 0.00000 0.00000
											CHANNELS 3 Zrotation Xrotation Yrotation
											JOINT RightHandRing3
											{
												OFFSET -3.56744 0.00000 0.00000
												CHANNELS 3 Zrotation Xrotation Yrotation
												End site
												{
													OFFSET 0.00000 0.00000 0.00000
												}
											}
										}
									}
									JOINT RightHandPinky1
									{
										OFFSET -11.11390 0.00000 -6.03719
										CHANNELS 3 Zrotation Xrotation Yrotation
										JOINT RightHandPinky2
										{
											OFFSET -4.52789 0.00000 0.00000
											CHANNELS 3 Zrotation Xrotation Yrotation
											JOINT RightHandPinky3
											{
												OFFSET -2.46976 0.00000 0.00000
												CHANNELS 3 Zrotation Xrotation Yrotation
												End site
												{
													OFFSET 0.00000 0.00000 0.00000
												}
											}
										}
									}
								}
							}
						}
					}
					JOINT LeftShoulder
					{
						OFFSET 0.01000 7.91373 5.19711
						CHANNELS 3 Zrotation Xrotation Yrotation
						JOINT LeftArm
						{
							OFFSET 18.41580 0.00000 0.00000
							CHANNELS 3 Zrotation Xrotation Yrotation
							JOINT LeftForeArm
							{
								OFFSET 29.11090 0.00000 0.00000
								CHANNELS 3 Zrotation Xrotation Yrotation
								JOINT LeftHand
								{
									OFFSET 24.65040 0.00000 0.00000
									CHANNELS 3 Zrotation Xrotation Yrotation
									JOINT LeftHandThumb1
									{
										OFFSET 5.35114 -0.85590 3.97906
										CHANNELS 3 Zrotation Xrotation Yrotation
										JOINT LeftHandThumb2
										{
											OFFSET 4.52789 0.00000 0.00000
											CHANNELS 3 Zrotation Xrotation Yrotation
											JOINT LeftHandThumb3
											{
												OFFSET 2.46977 0.00000 0.00000
												CHANNELS 3 Zrotation Xrotation Yrotation
												End site
												{
													OFFSET 0.00000 0.00000 0.00000
												}
											}
										}
									}
									JOINT LeftHandIndex1
									{
										OFFSET 14.26970 0.00000 2.88139
										CHANNELS 3 Zrotation Xrotation Yrotation
										JOINT LeftHandIndex2
										{
											OFFSET 5.48836 0.00000 0.00000
											CHANNELS 3 Zrotation Xrotation Yrotation
											JOINT LeftHandIndex3
											{
												OFFSET 3.01859 0.00000 0.00000
												CHANNELS 3 Zrotation Xrotation Yrotation
												End site
												{
													OFFSET 0.00000 0.00000 0.00000
												}
											}
										}
									}
									JOINT LeftHandMiddle1
									{
										OFFSET 14.26970 0.00000 -0.09147
										CHANNELS 3 Zrotation Xrotation Yrotation
										JOINT LeftHandMiddle2
										{
											OFFSET 6.17440 0.00000 0.00000
											CHANNELS 3 Zrotation Xrotation Yrotation
											JOINT LeftHandMiddle3
											{
												OFFSET 3.56744 0.00000 0.00000
												CHANNELS 3 Zrotation Xrotation Yrotation
												End site
												{
													OFFSET 0.00000 0.00000 0.00000
												}
											}
										}
									}
									JOINT LeftHandRing1
									{
										OFFSET 12.69180 0.00000 -3.06433
										CHANNELS 3 Zrotation Xrotation Yrotation
										JOINT LeftHandRing2
										{
											OFFSET 5.62556 0.00000 0.00000
											CHANNELS 3 Zrotation Xrotation Yrotation
											JOINT LeftHandRing3
											{
												OFFSET 3.56744 0.00000 0.00000
												CHANNELS 3 Zrotation Xrotation Yrotation
												End site
												{
													OFFSET 0.00000 0.00000 0.00000
												}
											}
										}
									}
									JOINT LeftHandPinky1
									{
										OFFSET 11.11390 0.00000 -6.03719
										CHANNELS 3 Zrotation Xrotation Yrotation
										JOINT LeftHandPinky2
										{
											OFFSET 4.52789 0.00000 0.00000
											CHANNELS 3 Zrotation Xrotation Yrotation
											JOINT LeftHandPinky3
											{
												OFFSET 2.46976 0.00000 0.00000
												CHANNELS 3 Zrotation Xrotation Yrotation
												End site
												{
													OFFSET 0.00000 0.00000 0.00000
												}
											}
										}
									}
								}
							}
						}
					}
					JOINT pCube4
					{
						OFFSET 0.00000 10.91090 1.10792
						CHANNELS 3 Zrotation Xrotation Yrotation
						End site
						{
							OFFSET 0.00000 0.00000 0.00000
						}
					}
				}
			}
		}
	}
	JOINT RightUpLeg
	{
		OFFSET -9.98441 0.00000 0.00000
		CHANNELS 3 Zrotation Xrotation Yrotation
		JOINT RightLeg
		{
			OFFSET 0.00000 -42.11790 0.00000
			CHANNELS 3 Zrotation Xrotation Yrotation
			JOINT RightFoot
			{
				OFFSET 0.00000 -45.00020 -0.00001
				CHANNELS 3 Zrotation Xrotation Yrotation
				JOINT RightForeFoot
				{
					OFFSET 0.00000 -3.74820 0.00000
					CHANNELS 3 Zrotation Xrotation Yrotation
					JOINT RightToeBase
					{
						OFFSET 0.00000 0.06325 14.43120
						CHANNELS 3 Zrotation Xrotation Yrotation
						End site
						{
							OFFSET 0.00000 0.00000 0.00000
						}
					}
				}
			}
		}
	}
	JOINT LeftUpLeg
	{
		OFFSET 9.98441 0.00000 0.00000
		CHANNELS 3 Zrotation Xrotation Yrotation
		JOINT LeftLeg
		{
			OFFSET 0.00000 -42.11800 0.00000
			CHANNELS 3 Zrotation Xrotation Yrotation
			JOINT LeftFoot
			{
				OFFSET 0.00000 -45.00070 0.00000
				CHANNELS 3 Zrotation Xrotation Yrotation
				JOINT LeftForeFoot
				{
					OFFSET 0.00000 -3.74824 0.00000
					CHANNELS 3 Zrotation Xrotation Yrotation
					JOINT LeftToeBase
					{
						OFFSET 0.00000 0.06325 14.43110
						CHANNELS 3 Zrotation Xrotation Yrotation
						End site
						{
							OFFSET 0.00000 0.00000 0.00000
						}
					}
				}
			}
		}
	}
}
MOTION
Frames: 4
Frame Time: 0.050000
-0.043907162275982556 0.011822963306620742 0.02915189816099308 0.00547538839792282 0.011604269063544862 0.02770158563257502 -3.156684668123001 -0.7193447933592935 -0.6617401522215424 -0.9890147386534582 3.6054182271589643 0.34844966595793153 -1.1961823087844736 -2.197933691904835 -1.378416984878922 -0.006303229027149379 0.2034223508701033 -0.8561332246497592 -0.6062065087580222 13.270129243146382 1.8651752308492902 -0.06913277128115745 0.9179992058585448 2.4120338336467184 -0.6587611658936261 -13.051538125030218 0.2813073462274283 -4.872815959406593 1.718520389807599 -13.839582213613543 66.7236201648542 11.248339926797282 15.341238319857444 27.152699366691344 -0.9718483651390681 83.80922511537318 16.497838039830224 -0.4658314926436301 -3.1700276196637796 4.519644233882584 -0.15266950255470302 -1.6079233920750564 -0.03745904006034128 -0.0011314925327364053 -56.24066091103986 0.03762146768447237 0.021568829802850104 -56.21310456807664 -38.78278430310758 -0.04785013670810947 -0.012720968328719807 0.03623914003891009 0.02762931087819615 -0.003349722422961541 0.000826943276849684 -0.007637534984677659 -0.006551299678799029 -36.70736530580226 -0.04373725702756398 0.005026795430442234 -0.032723669526378736 -0.027977540314094756 -0.0002529130665686699 -0.008415351368584553 -0.02346635233670138 0.002278621332543249 -19.725249111496073 0.00962539437035084 0.01727933781606768 -0.02390385281188881 0.018914225938979595 0.014832148079556616 -0.028736628157801005 -0.021281148342831027 0.03900856804566029 24.077128104409667 0.04168111295149767 0.02189458185044528 28.866326186916236 -0.046662500807679114 0.049816183785628555 28.906465282948602 -0.035104592233502215 -0.022503148948407235 7.290977199670348 1.4913031139338113 12.703294306916165 -67.9393904353858 5.582062138878164 -18.009219380327846 -22.15417169508215 -15.193635528577785 -49.1397506855024 -3.754153115475133 -0.34963335809041585 0.042658853083391714 -0.4520045135409213 0.09691099306600211 -8.123249503301341 -0.012864925845036419 -0.004979031679223712 44.58851754839318 -0.0024316785155476203 0.03412501205761682 44.600102054918686 12.480442840847592 0.036124571674611174 -0.004353192668315054 -0.019790395998510485 -0.04850317694374535 0.04171276594966727 -3.0995816361553814e-05 -0.045492573406083675 -0.005363049040622867 11.09604307798173 -0.045147764965113586 0.016474222246025134 -0.014498916753744723 -0.0032574559554624945 -0.046986643536732695 0.008963382215385179 0.025956557710478535 0.01504767117837599 4.729918484799674 0.012405473368075818 -0.018586481920154153 -0.014343954772317 -0.01285827219520494 0.017818647709486084 -0.018881821900877126 -0.008347938668356016 0.024321760268668766 -5.574168233449146 -0.02759825908020361 -0.018142233069254908 -6.746235960520299 -0.00029713858076456704 -0.006996829024931858 -6.681405994371682 -0.0186084057864302 -0.04460810848020163 0.010585540490141553 0.02410318836720506 0.007611631599117566 8.005368603643015 3.5386423119742108 -19.213156421168577 0.009379450514448861 10.440676685784352 0.020724858462143968 -5.602646382609864 -15.664732060211472 3.1569024183976166 -0.03466386160871688 0.02784258111781354 0.02191938440159229 -0.008603421781104029 4.73309137438707 -0.043246664810767665 12.48523288140412 -8.278158968817205 6.8357122978424005 -0.006700524243719721 46.371128122591486 0.028344649741698938 -4.3087411512644005 -14.75759426997693 -3.7907827701602836 -0.04650893414906382 0.013618413476178952 0.034568085438026926 0.040643786024383344 -10.782290811123287 -0.0038943971781310377 
0.03933366650169473 0.014080071066085768 -0.030661428452547435 -0.01827302623184086 -0.022438684720424523 -0.0019667805767784765 -2.918782662776111 -0.7041406059412956 -0.701128514556412 -1.0076121549518526 3.6021537329536266 0.3702203332848472 -1.1813950516576448 -2.232181650247748 -1.8624298520627633 0.16339110450675398 0.1834110955974502 -0.9413231555610282 -0.7114010812459775 13.107009821991612 2.022172050808185 -0.1832986927303206 0.6930264146230509 3.215156436447252 -0.8224658273722756 -13.406510491124074 0.32144528006464557 -4.748209856421252 1.6525335496771394 -14.273192545353567 67.022900939578 9.585330335768035 12.23946415731174 28.61086640203666 -1.5042772735168113 85.9494342104868 15.924311724763927 -0.45670004706451756 -3.0383143333746174 4.566783630327344 -0.09541811213420517 -1.6014464425994492 0.019227359866876525 0.006098545029309918 -56.1927725004329 0.021266317079858283 0.017470953711674585 -56.26522175722648 -38.7998803225492 -0.04285248154110811 -0.00566188997227962 -0.006421587537173005 0.011343692001624361 -0.02916420892229249 -0.023579994491916625 0.020949381026768722 -0.01962334748094037 -36.65593521479333 0.0442323960158386 -0.048036965244978164 -0.012986913582085294 -0.017718130456370957 0.012342623571431557 0.04932667738070306 0.03128464804604739 -0.030964834777140786 -19.781425082261787 -0.022409391150496786 -0.011126063106528833 0.04103798171438299 -0.026948213839965294 0.002233009539092525 0.04456508012933572 -0.045324364488347285 -0.03474592029078776 24.005336233369952 -0.033228966444435584 0.03709100280714969 28.8855237744352 -0.04768297375908979 -0.025045795400715064 28.895749119249746 -0.009120709079062605 0.015390325559924515 7.756783513584612 1.5956519399720142 12.75002442374224 -68.45720389799175 2.3798607230533384 -18.732642076525718 -24.102698101768514 -15.580948448266689 -50.34910406213397 -1.6574685043158617 -0.25453047148224156 -0.4153940688735331 -0.4631224260770444 0.0729533827169994 -8.092256220050507 0.021464532237242286 0.03401428698354408 44.578665137327434 -0.037171989901997445 0.032250218772442885 44.59204485196959 12.462232087950301 -0.024347324848723012 0.03143010156407539 -0.038950784562420626 -4.3234635183746515e-05 0.049227305670869755 -0.017297516279600047 0.02500967007312048 0.014742114818791154 11.126733475429516 0.03783579155742728 0.01239686944258798 0.012823864189181609 0.023700401412347107 0.017667039468351572 -0.003462893793037565 0.04841666981736102 -0.02136268226721782 4.765057514959139 0.017903608501539898 0.0075791004123404926 0.021845362329537793 -0.012663288991696687 0.03300450498063243 -0.029008908385489585 -0.007541419010399788 -0.024997325370990215 -5.574861659340683 -0.019891096197978908 0.010958139539945745 -6.725660070445567 -0.008064439073031289 -0.04795950200606175 -6.739646129876637 0.018255820438850157 0.009390963663410237 -0.023125496599538657 0.02784035476912689 0.04814280994022997 8.016940016187993 3.495326048764116 -19.26268629430266 0.020459761689261002 10.41790585163715 -0.01705398060187688 -5.649707385129827 -15.685415696518588 3.176299269651979 0.0270640610104656 -0.018786586936790257 -0.024665171293337455 -0.0007661112936143633 4.6590555693474345 -0.04056742945466765 12.442228739819534 -8.221511440152637 6.86739316400455 0.02062065474449269 46.362827005274006 0.020099126962062102 -4.321332357558229 -14.734921179622297 -3.869073155966024 0.03485399372545489 -0.034077406963449346 -0.03195715597526397 -0.04468802766544789 -10.77858843145976 0.03712554149318476 
0.033138247071156 0.042778153405559634 -0.03350240540401796 -0.0012694807646125696 -0.041750440678231145 0.03353986173320813 -2.8155032692986124 -0.7009255222571769 -0.7680786925302092 -1.0832938758711916 3.5795477338244894 0.3221222742785002 -1.1488897150540156 -2.147262885434008 -2.2507216459280643 0.21380720961940775 0.26862458494995245 -1.0155874576761363 -0.8554699907301977 12.865120603835773 2.061607691474856 -0.28519515747186835 0.5099974461218033 3.7691821963486016 -0.9333429712783297 -13.870216989816303 0.386147106064184 -4.647498192451685 1.5982019079292178 -14.709693986642145 67.72880074658309 8.473304325772078 9.116121224978519 29.320659173372682 -2.2183537894615615 87.97055185318764 15.578219977319065 -0.47513153684600135 -2.954276153703314 4.540356737887381 -0.1691831083693978 -1.6348449015702389 0.041263164072830066 0.0316269074708991 -56.265880378548744 -0.009145947498817343 0.018531577693816602 -56.194037679801916 -38.754443826890245 -0.012242036702225633 0.029086098344070173 -0.03728513784366717 -0.00950111606835634 -0.04116787002663234 -0.049260213019754105 0.008341700635920293 -0.0104188173160232 -36.70884171749469 0.029010747307199894 -0.010493334748445106 -0.032305898981912794 -0.029348236876589683 0.009222929494457478 -0.042790371353736256 0.008403424463783695 0.04146287271663057 -19.799149571466597 -0.02328160110902471 0.025182506355154153 0.017657425260572783 -0.023440898164103354 -0.0002090549562914454 0.019828502018855346 -0.022111243007859775 0.00907785373588708 24.06452620707383 -0.013868528803636196 -0.0299285883391636 28.873359227484823 0.030822972327802078 -0.04370280104861588 28.87614920267273 0.04884607556965965 -0.04391695463835918 8.112153137609823 1.6556021527507727 12.761967287323817 -69.40443458176314 0.8744221914716349 -18.266049518245786 -25.470562894573987 -15.310410693240357 -51.87527150385866 -0.27956325891939576 -0.22209755958419256 -0.7257397100542751 -0.5084485231224138 0.027654068905847255 -8.118737856365547 -0.018942659404233425 0.028808948688528246 44.594580136750004 0.037837468205329156 -0.03794353791010571 44.551159221936054 12.459659880241821 0.011950945276057069 0.0004226723154243078 -0.011527099071452778 0.00134579342819246 -0.014029453764196335 -0.019672792973220696 -0.034161262066284316 -0.030858495109059914 11.109168712704806 -0.024990224880318827 0.02867523101771973 -0.014034128775564885 -0.014863724596153332 -0.021045457239804416 -0.026176921343278533 -0.0008874049441359363 -0.025765516295755915 4.779664303263351 -0.009111227931281614 0.04148447877468776 -0.010811920104728739 0.0040580380093992 0.02101223371401298 0.020406369749050742 -0.028799528368655035 -0.032898570964791214 -5.624032339706111 -0.04179846197100065 -0.0055306234890949565 -6.7157293668566895 0.020291252204408448 0.022111343354552834 -6.6778372366369805 0.01668176872406267 0.01971452998332326 -0.024964473294562785 -0.02434146876138567 -0.004086585936340892 8.01883385066321 3.4466798450953653 -19.17691646744745 -0.026577996271743426 10.37593605206647 -0.0018320245368266472 -5.661708723752328 -15.664311919131343 3.144915201992017 0.009718208212839002 0.005809801247889086 0.04377940894256229 -0.04408689017383348 4.7377645011714975 0.009448237943705988 12.453273257534311 -8.249047150016198 6.876236104192936 -0.04606541658399417 46.35917697534673 -0.026374814680515883 -4.355551209424114 -14.757913719683502 -3.8599294729697275 -0.0008124727429819348 -0.028776503361252516 0.02985253702065425 -0.03440169395531834 -10.75764464540003 -0.02592660857498459 
0.04093148584839336 0.017760696509547737 0.0025373249389556013 -0.04307147863776608 0.024549262428161286 -0.012614775957849215 -2.65835256408031 -0.5500451890105091 -0.8377630635560448 -1.0443801111462805 3.57500156309492 0.3930338601037593 -1.1376248203024704 -2.1259805778000462 -2.476467597703126 0.3157384283859549 0.2548629588447287 -1.020131874779875 -0.9372404611994006 12.71645769906165 2.1196263157119777 -0.31561559708209846 0.3135692350712398 4.045650681011053 -0.9002194124695737 -14.193156786912542 0.3414967832640546 -4.643285430847622 1.6628410075826505 -15.096130846645979 68.47378136471863 8.188207693942037 6.200110635033337 28.619948038111946 -2.6302409463327834 89.24107115841163 15.562367418378605 -0.4356417905149282 -2.8428885277107834 4.48760861746359 -0.13619405613340976 -1.6190760514718383 0.02296899734984093 0.02319954822588275 -56.19972757232034 0.004320898796834133 0.015111699653982439 -56.21898460501056 -38.757682623591506 0.025978437535664697 -0.04308635585723938 -0.042557972531428276 -0.0044900265585728575 0.002611005537014303 0.025247858599812593 0.02313383135856582 -0.047082750719712255 -36.72948635178129 -0.03782994492903513 0.035751127449827086 0.03956637820934699 -0.022989000386326758 0.027459174559052855 -0.02600632802695407 0.030550361395255916 -0.006096502478686622 -19.730244364612687 0.034760254795908684 0.008415491408240322 -0.04820675341167456 0.04850173853482763 0.016560787711837437 -0.00037596045169576266 0.025013252839018476 0.002730185586818437 24.084652705687606 -0.02762007935792967 0.001388319138632583 28.81586206285212 -0.010172166437317028 0.007858660929684487 28.853690116367847 0.04201923449958636 -0.017673841647123316 8.129139708175478 1.7431856553834961 12.910981576975626 -70.46695450038105 1.2836673421733291 -16.756239137487125 -26.74236063386384 -14.251248301786978 -53.45227723681367 0.46963244157660433 -0.08421293701445996 -0.9635942888587243 -0.4849780285608753 0.05408959794636804 -8.171172018498812 0.03188020592813208 0.025622568609300175 44.530824217142566 -0.01676087842454397 0.004702956035528505 44.555132612163774 12.45284677676046 0.01072165768124606 0.035166578240407025 -0.022715549223558368 -0.006909255067405523 0.0024296143942725244 -0.03148010114556605 0.014962370460959957 -0.0037967271006510606 11.088741005073137 -0.02587741205305135 -0.02062793700931171 0.022531616227162512 0.041868871280469726 -0.02971095180668712 -0.0466224107109981 0.0339866687998914 0.0313373578152757 4.725554022411495 -0.0054134775686867295 -0.04163126509474328 0.01715647180950014 -0.02666866122349004 -0.037633196625066576 -0.01733023373136999 -0.033580156325073156 -0.02058394094218391 -5.600918064999282 -0.04882983926179301 -0.00737089872241909 -6.718697168960426 0.007537323006131133 -0.013663285845598535 -6.707284249409296 -0.011589111108114399 0.018928618515867225 0.007162021073168714 -0.024845722533972596 0.036013102827745294 8.036131811348184 3.50262378387757 -19.265895755093318 -0.04641467739674305 10.413120584057081 -0.011387159932116833 -5.597960775073866 -15.675365455560481 3.1759852502423196 0.00692447447713035 -0.01325352235431087 0.0369676902628073 0.009976890296289183 4.730575279724075 0.002456294016318878 12.442258077072687 -8.232673799794425 6.880584269037727 -0.048910502798160865 46.40376918772305 0.04034385706061034 -4.372405218005257 -14.765140671098145 -3.807121091331971 -0.023769123418096085 0.03555633083796152 0.04120762973591312 -0.0403506205301044 -10.698078013592061 -0.036634947915765874 
